<svg id="visual" viewBox="0 0 900 600" width="900" height="600" xmlns="http://www.w3.org/2000/svg" xmlns:xlink="http://www.w3.org/1999/xlink" version="1.1"><path d="M0 403L21.5 406C43 409 86 415 128.8 411.5C171.7 408 214.3 395 257.2 384.7C300 374.3 343 366.7 385.8 374.5C428.7 382.3 471.3 405.7 514.2 406.5C557 407.3 600 385.7 642.8 379.8C685.7 374 728.3 384 771.2 385.5C814 387 857 380 878.5 376.5L900 373L900 601L878.5 601C857 601 814 601 771.2 601C728.3 601 685.7 601 642.8 601C600 601 557 601 514.2 601C471.3 601 428.7 601 385.8 601C343 601 300 601 257.2 601C214.3 601 171.7 601 128.8 601C86 601 43 601 21.5 601L0 601Z" fill="#74a8e4"></path><path d="M0 415L21.5 422.2C43 429.3 86 443.7 128.8 450C171.7 456.3 214.3 454.7 257.2 455.2C300 455.7 343 458.3 385.8 461.2C428.7 464 471.3 467 514.2 466C557 465 600 460 642.8 449C685.7 438 728.3 421 771.2 416C814 411 857 418 878.5 421.5L900 425L900 601L878.5 601C857 601 814 601 771.2 601C728.3 601 685.7 601 642.8 601C600 601 557 601 514.2 601C471.3 601 428.7 601 385.8 601C343 601 300 601 257.2 601C214.3 601 171.7 601 128.8 601C86 601 43 601 21.5 601L0 601Z" fill="#5f97d1"></path><path d="M0 442L21.5 445.7C43 449.3 86 456.7 128.8 462C171.7 467.3 214.3 470.7 257.2 476.3C300 482 343 490 385.8 495.3C428.7 500.7 471.3 503.3 514.2 503C557 502.7 600 499.3 642.8 489.3C685.7 479.3 728.3 462.7 771.2 464C814 465.3 857 484.7 878.5 494.3L900 504L900 601L878.5 601C857 601 814 601 771.2 601C728.3 601 685.7 601 642.8 601C600 601 557 601 514.2 601C471.3 601 428.7 601 385.8 601C343 601 300 601 257.2 601C214.3 601 171.7 601 128.8 601C86 601 43 601 21.5 601L0 601Z" fill="#4a86bf"></path><path d="M0 494L21.5 493.2C43 492.3 86 490.7 128.8 491.7C171.7 492.7 214.3 496.3 257.2 501C300 505.7 343 511.3 385.8 514.3C428.7 517.3 471.3 517.7 514.2 515.7C557 513.7 600 509.3 642.8 511.8C685.7 514.3 728.3 523.7 771.2 522.8C814 522 857 511 878.5 505.5L900 500L900 601L878.5 601C857 601 814 601 771.2 601C728.3 601 685.7 601 642.8 601C600 601 557 601 514.2 601C471.3 601 428.7 601 385.8 601C343 601 300 601 257.2 601C214.3 601 171.7 601 128.8 601C86 601 43 601 21.5 601L0 601Z" fill="#3375ad"></path><path d="M0 546L21.5 543.3C43 540.7 86 535.3 128.8 538.5C171.7 541.7 214.3 553.3 257.2 560.5C300 567.7 343 570.3 385.8 570C428.7 569.7 471.3 566.3 514.2 559.7C557 553 600 543 642.8 538.3C685.7 533.7 728.3 534.3 771.2 537.3C814 540.3 857 545.7 878.5 548.3L900 551L900 601L878.5 601C857 601 814 601 771.2 601C728.3 601 685.7 601 642.8 601C600 601 557 601 514.2 601C471.3 601 428.7 601 385.8 601C343 601 300 601 257.2 601C214.3 601 171.7 601 128.8 601C86 601 43 601 21.5 601L0 601Z" fill="#16659b"></path></svg>