<svg id="visual" viewBox="0 0 900 600" width="900" height="600" xmlns="http://www.w3.org/2000/svg" xmlns:xlink="http://www.w3.org/1999/xlink" version="1.1"><path d="M0 374L21.5 377C43 380 86 386 128.8 389.5C171.7 393 214.3 394 257.2 392C300 390 343 385 385.8 381.5C428.7 378 471.3 376 514.2 376.2C557 376.3 600 378.7 642.8 378.5C685.7 378.3 728.3 375.7 771.2 375.2C814 374.7 857 376.3 878.5 377.2L900 378L900 601L878.5 601C857 601 814 601 771.2 601C728.3 601 685.7 601 642.8 601C600 601 557 601 514.2 601C471.3 601 428.7 601 385.8 601C343 601 300 601 257.2 601C214.3 601 171.7 601 128.8 601C86 601 43 601 21.5 601L0 601Z" fill="#16659b"></path><path d="M0 458L21.5 456.3C43 454.7 86 451.3 128.8 450.3C171.7 449.3 214.3 450.7 257.2 451.3C300 452 343 452 385.8 454.5C428.7 457 471.3 462 514.2 462.5C557 463 600 459 642.8 452.8C685.7 446.7 728.3 438.3 771.2 433.3C814 428.3 857 426.7 878.5 425.8L900 425L900 601L878.5 601C857 601 814 601 771.2 601C728.3 601 685.7 601 642.8 601C600 601 557 601 514.2 601C471.3 601 428.7 601 385.8 601C343 601 300 601 257.2 601C214.3 601 171.7 601 128.8 601C86 601 43 601 21.5 601L0 601Z" fill="#3375ad"></path><path d="M0 473L21.5 467.7C43 462.3 86 451.7 128.8 453.8C171.7 456 214.3 471 257.2 471C300 471 343 456 385.8 452.7C428.7 449.3 471.3 457.7 514.2 468C557 478.3 600 490.7 642.8 494.8C685.7 499 728.3 495 771.2 485.7C814 476.3 857 461.7 878.5 454.3L900 447L900 601L878.5 601C857 601 814 601 771.2 601C728.3 601 685.7 601 642.8 601C600 601 557 601 514.2 601C471.3 601 428.7 601 385.8 601C343 601 300 601 257.2 601C214.3 601 171.7 601 128.8 601C86 601 43 601 21.5 601L0 601Z" fill="#4a86bf"></path><path d="M0 516L21.5 513.7C43 511.3 86 506.7 128.8 510.2C171.7 513.7 214.3 525.3 257.2 527.2C300 529 343 521 385.8 516.3C428.7 511.7 471.3 510.3 514.2 507C557 503.7 600 498.3 642.8 500.5C685.7 502.7 728.3 512.3 771.2 516.3C814 520.3 857 518.7 878.5 517.8L900 517L900 601L878.5 601C857 601 814 601 771.2 601C728.3 601 685.7 601 642.8 601C600 601 557 601 514.2 601C471.3 601 428.7 601 385.8 601C343 601 300 601 257.2 601C214.3 601 171.7 601 128.8 601C86 601 43 601 21.5 601L0 601Z" fill="#5f97d1"></path><path d="M0 568L21.5 565.3C43 562.7 86 557.3 128.8 552.2C171.7 547 214.3 542 257.2 543.7C300 545.3 343 553.7 385.8 551.5C428.7 549.3 471.3 536.7 514.2 533.5C557 530.3 600 536.7 642.8 539.2C685.7 541.7 728.3 540.3 771.2 542.8C814 545.3 857 551.7 878.5 554.8L900 558L900 601L878.5 601C857 601 814 601 771.2 601C728.3 601 685.7 601 642.8 601C600 601 557 601 514.2 601C471.3 601 428.7 601 385.8 601C343 601 300 601 257.2 601C214.3 601 171.7 601 128.8 601C86 601 43 601 21.5 601L0 601Z" fill="#74a8e4"></path></svg>